# xmcd CD database file
#
# Track frame offsets:
#	150
#	30187
#	48387
#	63375
#	85150
#	104175
#	107125
#	126550
#	153175
#	170950
#	198912
#	222925
#	242412
#
# Disc length: 3567 seconds
#
# Revision: 1
# Processed by: cddbd v1.5.2PL0 Copyright (c) Steve Scherf et al.
# Submitted via: CDex 1.70beta2
#
DISCID=b50ded0d
DTITLE=The Controllers - Timeless Soul Collection vol.2
DYEAR=1988
DGENRE=Soul
TTITLE0=I Can't Turn That Boogie Loose
TTITLE1=This Train
TTITLE2=You Ain't Fooling Me
TTITLE3=Hurt By Love Again
TTITLE4=The Reaper
TTITLE5=Just For Love
TTITLE6=Sho Nuff A Blessin'
TTITLE7=If Tears Were Pennies
TTITLE8=Ankle Chain
TTITLE9=If Tomorrow Never Comes
TTITLE10=Castles In The Sky
TTITLE11=Love's In Need
TTITLE12=When Did You Stop Loving Me
EXTD=YEAR: 1988
EXTT0=
EXTT1=
EXTT2=
EXTT3=
EXTT4=
EXTT5=
EXTT6=
EXTT7=
EXTT8=
EXTT9=
EXTT10=
EXTT11=
EXTT12=
PLAYORDER=
